<svg width="24" height="24" viewBox="0 0 24 24" fill="none" xmlns="http://www.w3.org/2000/svg">
<path d="M5.33328 5.46667H15.9999V6.53333H5.33328V5.46667ZM5.33328 10.8H10.7239V11.8667H5.33328V10.8ZM15.5853 8.13333H5.33328V9.2H14.5193L15.5853 8.13333ZM8.52927 19.3813C8.70852 19.5869 8.93601 19.7446 9.19131 19.8405C9.4466 19.9364 9.72172 19.9674 9.99194 19.9307H15.1946C15.3184 19.9307 15.4371 19.8815 15.5246 19.794C15.6121 19.7065 15.6613 19.5878 15.6613 19.464C15.6613 19.3402 15.6121 19.2215 15.5246 19.134C15.4371 19.0465 15.3184 18.9973 15.1946 18.9973H9.99194C9.38461 18.9867 9.49261 18.4593 9.57794 18.296C9.68919 18.1043 9.77588 17.8994 9.83594 17.686C9.8758 17.5143 9.85702 17.3343 9.78258 17.1745C9.70815 17.0148 9.58236 16.8846 9.42527 16.8047C9.17291 16.691 8.89023 16.6631 8.62053 16.7254C8.35082 16.7876 8.10895 16.9365 7.93194 17.1493C7.70261 17.386 7.38394 17.748 7.07861 18.1C7.26727 17.3607 7.51194 16.412 7.75194 15.4867C7.82072 15.2758 7.80702 15.0468 7.71362 14.8456C7.62022 14.6445 7.45406 14.4862 7.24861 14.4027C7.02108 14.3246 6.77241 14.3358 6.55279 14.4339C6.33316 14.532 6.15894 14.7098 6.06527 14.9313C5.77727 15.4853 3.49727 19.306 3.47461 19.3447C3.44318 19.3973 3.42242 19.4556 3.41352 19.5162C3.40462 19.5769 3.40775 19.6386 3.42273 19.6981C3.45298 19.8181 3.52968 19.9212 3.63594 19.9847C3.74221 20.0481 3.86933 20.0668 3.98935 20.0366C4.10938 20.0063 4.21247 19.9296 4.27594 19.8233C4.36128 19.68 6.18128 16.6313 6.75528 15.6133C6.32328 17.28 5.84728 19.1347 5.81928 19.3013C5.78776 19.4239 5.79722 19.5534 5.84621 19.67C5.89521 19.7867 5.98104 19.8841 6.09061 19.9473C6.21264 20.0079 6.35135 20.026 6.48486 19.999C6.61837 19.972 6.73907 19.9012 6.82794 19.798C6.91194 19.722 7.06928 19.5413 7.46594 19.0807C7.83552 18.646 8.21405 18.219 8.60128 17.8C8.74661 17.6467 8.83461 17.7147 8.74927 17.8653C8.58235 18.0763 8.4741 18.3276 8.43547 18.5938C8.39684 18.86 8.4292 19.1317 8.52927 19.3813Z" fill="#514EF3"/>
<path d="M18.6667 14.4633V21.3333H2.66671V2.66667H18.6667V5.99534L19.5534 5.10867C19.6899 4.97405 19.8395 4.85345 20 4.74867V2C20 1.82319 19.9298 1.65362 19.8048 1.5286C19.6798 1.40357 19.5102 1.33334 19.3334 1.33334H2.00004C1.82323 1.33334 1.65366 1.40357 1.52864 1.5286C1.40361 1.65362 1.33337 1.82319 1.33337 2V22C1.33337 22.1768 1.40361 22.3464 1.52864 22.4714C1.65366 22.5964 1.82323 22.6667 2.00004 22.6667H19.3334C19.5102 22.6667 19.6798 22.5964 19.8048 22.4714C19.9298 22.3464 20 22.1768 20 22V14.2847C19.5911 14.5013 19.1182 14.5647 18.6667 14.4633Z" fill="#514EF3"/>
<path d="M22.752 7.90733L22.4034 7.55867C22.5816 7.32317 22.6718 7.03277 22.6584 6.73776C22.645 6.44275 22.5288 6.16171 22.33 5.94333C22.072 5.71589 21.7345 5.59962 21.3911 5.61985C21.0477 5.64008 20.7263 5.79517 20.4967 6.05133L12.1467 14.4L11.5887 16.4947C11.5799 16.5221 11.5788 16.5514 11.5856 16.5794C11.5924 16.6074 11.6068 16.6329 11.6272 16.6532C11.6477 16.6735 11.6733 16.6877 11.7013 16.6943C11.7294 16.701 11.7587 16.6997 11.786 16.6907L13.8734 16.126L21.668 8.33133L21.9974 8.66133C22.0204 8.6843 22.0386 8.71158 22.0511 8.74161C22.0635 8.77164 22.0699 8.80383 22.0699 8.83633C22.0699 8.86884 22.0635 8.90103 22.0511 8.93105C22.0386 8.96108 22.0204 8.98836 21.9974 9.01133L18.7194 12.2893C18.6194 12.3894 18.5632 12.5251 18.5633 12.6666C18.5634 12.808 18.6196 12.9437 18.7197 13.0437C18.8198 13.1437 18.9555 13.1998 19.0969 13.1997C19.2384 13.1997 19.374 13.1434 19.474 13.0433L22.752 9.76533C22.9984 9.51881 23.1368 9.18454 23.1368 8.836C23.1368 8.48746 22.9984 8.15319 22.752 7.90667" fill="#514EF3"/>
</svg>
