<svg width="24" height="24" viewBox="0 0 24 24" fill="none" xmlns="http://www.w3.org/2000/svg">
<g clip-path="url(#clip0_20_80)">
<path d="M19.5267 22.6667H4.47337C4.32454 22.6675 4.17699 22.6391 4.03916 22.583C3.90132 22.5268 3.77589 22.4441 3.67003 22.3394C3.56417 22.2348 3.47995 22.1104 3.42219 21.9732C3.36443 21.836 3.33425 21.6888 3.33337 21.54V4.46C3.33733 4.29509 3.37622 4.13288 3.44746 3.9841C3.51871 3.83532 3.6207 3.70333 3.74671 3.59686C3.87271 3.49039 4.01986 3.41185 4.17844 3.36642C4.33703 3.321 4.50344 3.30972 4.66671 3.33333H6.00004V4.66667H4.66671V21.3333H19.3334V4.66667H18V3.33333H19.5C19.6511 3.32889 19.8015 3.35469 19.9424 3.40924C20.0834 3.46378 20.212 3.54596 20.3207 3.65094C20.4294 3.75591 20.516 3.88157 20.5754 4.02051C20.6348 4.15946 20.6659 4.30888 20.6667 4.46V21.54C20.6658 21.6888 20.6357 21.836 20.5779 21.9732C20.5201 22.1104 20.4359 22.2348 20.3301 22.3394C20.2242 22.4441 20.0988 22.5268 19.9609 22.583C19.8231 22.6391 19.6755 22.6675 19.5267 22.6667Z" fill="#514EF3"/>
<path d="M11.1067 17.1733L7.53336 13.6C7.42498 13.4717 7.36902 13.3072 7.37667 13.1395C7.38431 12.9717 7.455 12.813 7.57459 12.6951C7.69419 12.5772 7.85388 12.5087 8.02175 12.5035C8.18961 12.4982 8.35328 12.5565 8.48003 12.6667L11.1067 15.2933L16.8667 9.53334C16.9942 9.42412 17.1583 9.36705 17.3261 9.37353C17.4938 9.38001 17.653 9.44956 17.7717 9.56829C17.8905 9.68702 17.96 9.84618 17.9665 10.014C17.973 10.1818 17.9159 10.3458 17.8067 10.4733L11.1067 17.1733Z" fill="#514EF3"/>
<path d="M17.3333 7.33334H6.66663V4.88667C6.66838 4.47524 6.8326 4.08116 7.12352 3.79024C7.41445 3.49931 7.80853 3.33509 8.21996 3.33334H9.41329C9.56016 2.75973 9.89376 2.25131 10.3615 1.88825C10.8292 1.52518 11.4045 1.32811 11.9966 1.32811C12.5887 1.32811 13.164 1.52518 13.6318 1.88825C14.0995 2.25131 14.4331 2.75973 14.58 3.33334H15.7733C16.1859 3.33333 16.5817 3.49678 16.874 3.78789C17.1664 4.07901 17.3315 4.47409 17.3333 4.88667V7.33334ZM7.99996 6.00001H16V4.88667C16 4.82832 15.9768 4.77237 15.9355 4.73111C15.8943 4.68985 15.8383 4.66667 15.78 4.66667H13.3333V4.00001C13.3333 3.64638 13.1928 3.30724 12.9428 3.0572C12.6927 2.80715 12.3536 2.66667 12 2.66667C11.6463 2.66667 11.3072 2.80715 11.0572 3.0572C10.8071 3.30724 10.6666 3.64638 10.6666 4.00001V4.66667H8.21996C8.19107 4.66667 8.16246 4.67236 8.13577 4.68342C8.10908 4.69447 8.08482 4.71068 8.0644 4.73111C8.04397 4.75154 8.02776 4.77579 8.01671 4.80248C8.00565 4.82917 7.99996 4.85778 7.99996 4.88667V6.00001Z" fill="#514EF3"/>
</g>
<defs>
<clipPath id="clip0_20_80">
<rect width="24" height="24" fill="white"/>
</clipPath>
</defs>
</svg>
