<svg width="24" height="24" viewBox="0 0 24 24" fill="none" xmlns="http://www.w3.org/2000/svg">
<path d="M6.66637 22.7679H17.3335C19.4129 22.7679 20.4475 21.7131 20.4475 19.6239V10.5034C20.4475 9.20743 20.3069 8.64514 19.5034 7.82143L13.9585 2.18657C13.1957 1.40271 12.5725 1.23214 11.4377 1.23214H6.66637C4.59723 1.23214 3.55237 2.29671 3.55237 4.38643V19.6239C3.55237 21.723 4.59723 22.7679 6.66637 22.7679ZM6.74651 21.1509C5.71194 21.1509 5.16937 20.598 5.16937 19.5939V4.41643C5.16937 3.42214 5.71194 2.84914 6.7568 2.84914H11.2165V8.68543C11.2165 9.951 11.8594 10.5737 13.1048 10.5737H18.8305V19.5939C18.8305 20.598 18.2978 21.1509 17.2534 21.1509H6.74651ZM13.2857 9.05657C12.8939 9.05657 12.7328 8.89629 12.7328 8.49429V3.16071L18.5185 9.057L13.2857 9.05657Z" fill="#514EF3"/>
</svg>
