<svg width="16" height="16" viewBox="0 0 16 16" fill="none" xmlns="http://www.w3.org/2000/svg">
<path d="M1.75 3C1.55109 3 1.36032 3.07902 1.21967 3.21967C1.07902 3.36032 1 3.55109 1 3.75C1 3.94891 1.07902 4.13968 1.21967 4.28033C1.36032 4.42098 1.55109 4.5 1.75 4.5H14.25C14.4489 4.5 14.6397 4.42098 14.7803 4.28033C14.921 4.13968 15 3.94891 15 3.75C15 3.55109 14.921 3.36032 14.7803 3.21967C14.6397 3.07902 14.4489 3 14.25 3H1.75ZM1.75 6C1.55109 6 1.36032 6.07902 1.21967 6.21967C1.07902 6.36032 1 6.55109 1 6.75C1 6.94891 1.07902 7.13968 1.21967 7.28033C1.36032 7.42098 1.55109 7.5 1.75 7.5H14.25C14.4489 7.5 14.6397 7.42098 14.7803 7.28033C14.921 7.13968 15 6.94891 15 6.75C15 6.55109 14.921 6.36032 14.7803 6.21967C14.6397 6.07902 14.4489 6 14.25 6H1.75ZM1 9.75C1 9.55109 1.07902 9.36032 1.21967 9.21967C1.36032 9.07902 1.55109 9 1.75 9H14.25C14.4489 9 14.6397 9.07902 14.7803 9.21967C14.921 9.36032 15 9.55109 15 9.75C15 9.94891 14.921 10.1397 14.7803 10.2803C14.6397 10.421 14.4489 10.5 14.25 10.5H1.75C1.55109 10.5 1.36032 10.421 1.21967 10.2803C1.07902 10.1397 1 9.94891 1 9.75ZM1.75 12C1.55109 12 1.36032 12.079 1.21967 12.2197C1.07902 12.3603 1 12.5511 1 12.75C1 12.9489 1.07902 13.1397 1.21967 13.2803C1.36032 13.421 1.55109 13.5 1.75 13.5H10.25C10.4489 13.5 10.6397 13.421 10.7803 13.2803C10.921 13.1397 11 12.9489 11 12.75C11 12.5511 10.921 12.3603 10.7803 12.2197C10.6397 12.079 10.4489 12 10.25 12H1.75Z" fill="#514EF3"/>
</svg>
