<svg width="16" height="16" viewBox="0 0 16 16" fill="none" xmlns="http://www.w3.org/2000/svg">
<g clip-path="url(#clip0_135_804)">
<path d="M14.6667 1.49985H12.5V0.499845C12.5001 0.367237 12.4475 0.240025 12.3538 0.146194C12.2601 0.0523634 12.1329 -0.000399757 12.0003 -0.000488163C11.8677 -0.000576568 11.7405 0.0520171 11.6467 0.145723C11.5529 0.239428 11.5001 0.36657 11.5 0.499178V1.49985H8.5V0.499845C8.50004 0.434184 8.48715 0.369158 8.46207 0.308478C8.43698 0.247799 8.40019 0.192654 8.35379 0.146194C8.30739 0.0997339 8.2523 0.0628674 8.19165 0.0376996C8.131 0.0125318 8.06599 -0.000444396 8.00033 -0.00048817C7.86773 -0.000576575 7.74051 0.0520171 7.64668 0.145723C7.55285 0.239428 7.50009 0.36657 7.5 0.499178V1.49985H4.5V0.499845C4.50004 0.434184 4.48715 0.369158 4.46207 0.308478C4.43698 0.247799 4.40019 0.192654 4.35379 0.146194C4.30739 0.0997339 4.2523 0.0628674 4.19165 0.0376996C4.131 0.0125318 4.06599 -0.000444396 4.00033 -0.00048817C3.86773 -0.000576575 3.74051 0.0520171 3.64668 0.145723C3.55285 0.239428 3.50009 0.36657 3.5 0.499178V1.49985H1.33333C0.979827 1.49985 0.640789 1.64023 0.39076 1.89013C0.140731 2.14004 0.000176753 2.47901 0 2.83251V14.6658C0 15.0195 0.140476 15.3586 0.390524 15.6087C0.640573 15.8587 0.979711 15.9992 1.33333 15.9992H14.6667C15.0203 15.9992 15.3594 15.8587 15.6095 15.6087C15.8595 15.3586 16 15.0195 16 14.6658V2.83251C15.9998 2.47901 15.8593 2.14004 15.6092 1.89013C15.3592 1.64023 15.0202 1.49985 14.6667 1.49985ZM15 14.6665C15 14.7548 14.965 14.8395 14.9026 14.902C14.8402 14.9645 14.7556 14.9997 14.6673 14.9998H1.33333C1.24493 14.9998 1.16014 14.9647 1.09763 14.9022C1.03512 14.8397 1 14.7549 1 14.6665V2.83318C1.00018 2.74489 1.03537 2.66028 1.09787 2.59791C1.16036 2.53554 1.24504 2.50051 1.33333 2.50051H3.5V3.50051C3.49991 3.63312 3.55251 3.76033 3.64621 3.85416C3.73992 3.94799 3.86706 4.00076 3.99967 4.00085C4.13228 4.00093 4.25949 3.94834 4.35332 3.85463C4.44715 3.76093 4.49991 3.63379 4.5 3.50118V2.50051H7.5V3.50051C7.49991 3.63312 7.55251 3.76033 7.64621 3.85416C7.73992 3.94799 7.86706 4.00076 7.99967 4.00085C8.13228 4.00093 8.25949 3.94834 8.35332 3.85463C8.44715 3.76093 8.49991 3.63379 8.5 3.50118V2.50051H11.5V3.50051C11.4999 3.63312 11.5525 3.76033 11.6462 3.85416C11.7399 3.94799 11.8671 4.00076 11.9997 4.00085C12.1323 4.00093 12.2595 3.94834 12.3533 3.85463C12.4471 3.76093 12.4999 3.63379 12.5 3.50118V2.50051H14.6667C14.7548 2.50069 14.8394 2.53579 14.9017 2.59814C14.9641 2.66049 14.9992 2.745 14.9993 2.83318L15 14.6665Z" fill="#514EF3"/>
<path d="M3.5 6H5.5V7.5H3.5V6ZM3.5 8.5H5.5V10H3.5V8.5ZM3.5 11H5.5V12.5H3.5V11ZM7 11H9V12.5H7V11ZM7 8.5H9V10H7V8.5ZM7 6H9V7.5H7V6ZM10.5 11H12.5V12.5H10.5V11ZM10.5 8.5H12.5V10H10.5V8.5ZM10.5 6H12.5V7.5H10.5V6Z" fill="#514EF3"/>
</g>
<defs>
<clipPath id="clip0_135_804">
<rect width="16" height="16" fill="white"/>
</clipPath>
</defs>
</svg>
