<svg width="16" height="16" viewBox="0 0 16 16" fill="none" xmlns="http://www.w3.org/2000/svg">
<g clip-path="url(#clip0_135_849)">
<path d="M5.00184 13.1919L4.00293 14.9943" stroke="#514EF3" stroke-linecap="round" stroke-linejoin="round"/>
<path d="M10.9971 13.1919L11.996 14.9943" stroke="#514EF3" stroke-linecap="round" stroke-linejoin="round"/>
<path d="M7.99957 13.995C11.3103 13.995 13.9943 11.3111 13.9943 8.0003C13.9943 4.68953 11.3103 2.00562 7.99957 2.00562C4.6888 2.00562 2.00488 4.68953 2.00488 8.0003C2.00488 11.3111 4.6888 13.995 7.99957 13.995Z" stroke="#514EF3" stroke-linecap="round" stroke-linejoin="round"/>
<path d="M2.20553 6.40234C1.7453 6.05739 1.39404 5.58732 1.19366 5.04821C0.993277 4.5091 0.952232 3.92372 1.07542 3.36192C1.19861 2.80013 1.48084 2.28563 1.88842 1.87984C2.296 1.47404 2.81173 1.19408 3.37406 1.07336C3.9364 0.952641 4.52159 0.996259 5.05981 1.19901C5.59804 1.40176 6.06656 1.75508 6.40948 2.21682" stroke="#514EF3" stroke-linecap="round" stroke-linejoin="round"/>
<path d="M8 2.0057L8.00002 1.00659" stroke="#514EF3" stroke-linecap="round" stroke-linejoin="round"/>
<path d="M8 5.00293V8.00026" stroke="#514EF3" stroke-linecap="round" stroke-linejoin="round"/>
<path d="M8 8.00024L10.1194 10.1197" stroke="#514EF3" stroke-linecap="round" stroke-linejoin="round"/>
<path d="M13.7938 6.40234C14.254 6.05739 14.6053 5.58732 14.8057 5.04821C15.0061 4.5091 15.0471 3.92372 14.9239 3.36192C14.8007 2.80013 14.5185 2.28563 14.1109 1.87984C13.7033 1.47404 13.1876 1.19408 12.6253 1.07336C12.0629 0.952641 11.4777 0.996259 10.9395 1.19901C10.4013 1.40176 9.93276 1.75508 9.58984 2.21682" stroke="#514EF3" stroke-linecap="round" stroke-linejoin="round"/>
</g>
<defs>
<clipPath id="clip0_135_849">
<rect width="16" height="16" fill="white"/>
</clipPath>
</defs>
</svg>
