<svg width="370" height="167" viewBox="0 0 370 167" fill="none" xmlns="http://www.w3.org/2000/svg">
<path d="M3.17896 22.613C26.4037 29.9033 45.2 48.7051 71.3619 48.7051C97.5238 48.7051 105.944 34.6037 122.746 34.6037C139.549 34.6037 150.84 62.8065 174.13 62.8065C197.421 62.8065 213.985 29.9033 237.373 29.9033C260.76 29.9033 293.09 81.6084 315.437 81.6084C337.784 81.6084 366.821 1.80627 366.821 1.80627" stroke="#05C283" stroke-width="2" stroke-linecap="round"/>
<path fill-rule="evenodd" clip-rule="evenodd" d="M3.17882 22.613C26.4035 29.9033 45.1999 48.7051 71.3618 48.7051C97.5237 48.7051 105.944 34.6037 122.746 34.6037C139.549 34.6037 150.84 62.8065 174.13 62.8065C197.421 62.8065 213.985 29.9033 237.372 29.9033C260.76 29.9033 293.09 81.6084 315.437 81.6084C337.784 81.6084 366.821 1.80627 366.821 1.80627V167H3.17882C3.17882 167 3.02382 30.5146 3.17882 22.613Z" fill="url(#paint0_linear_24_225)"/>
<ellipse cx="366.071" cy="4" rx="3.71429" ry="4" fill="#07E098"/>
<ellipse cx="316.187" cy="80.9078" rx="3.71429" ry="4" fill="#07E098"/>
<ellipse cx="238.122" cy="29.2028" rx="3.71429" ry="4" fill="#07E098"/>
<ellipse cx="174.88" cy="62.106" rx="3.71429" ry="4" fill="#07E098"/>
<ellipse cx="123.496" cy="33.9032" rx="3.71429" ry="4" fill="#07E098"/>
<ellipse cx="72.1115" cy="48.0046" rx="3.71429" ry="4" fill="#07E098"/>
<ellipse cx="3.92864" cy="21.3687" rx="3.71429" ry="4" fill="#07E098"/>
<defs>
<linearGradient id="paint0_linear_24_225" x1="3.10132" y1="1.80627" x2="3.10132" y2="167" gradientUnits="userSpaceOnUse">
<stop stop-color="#00E096" stop-opacity="0.326568"/>
<stop offset="1" stop-color="white" stop-opacity="0.01"/>
</linearGradient>
</defs>
</svg>
