<svg width="368" height="94" viewBox="0 0 368 94" fill="none" xmlns="http://www.w3.org/2000/svg">
<path d="M3.17896 28.5265C18.3104 28.5265 51.1855 19.5334 66.5662 6.59104C81.9469 -6.35133 107.914 59.5909 125.783 59.5909C143.653 59.5909 156.62 59.5909 172.907 59.5909C189.193 59.5909 226.724 41.8445 246.719 41.8445C266.715 41.8445 287.617 45.3277 306.77 45.3277C325.923 45.3277 348.903 9.72468 366.821 9.72468" stroke="#007DD6" stroke-width="2" stroke-linecap="round"/>
<path fill-rule="evenodd" clip-rule="evenodd" d="M3.21879 28.5265C18.3486 28.5265 51.22 19.5334 66.5991 6.59104C81.9781 -6.35133 106.274 59.5909 124.142 59.5909C142.009 59.5909 157.846 59.5909 174.13 59.5909C190.415 59.5909 217.379 42.5115 237.373 42.5115C257.366 42.5115 296.219 48.8994 315.437 42.5115C334.655 36.1237 348.905 9.72468 366.821 9.72468C366.705 15.3518 366.821 93.5496 366.821 93.5496L3.21879 92.7662C3.21879 92.7662 3.13912 34.9833 3.21879 28.5265Z" fill="url(#paint0_linear_24_235)"/>
<ellipse cx="364.214" cy="8.90784" rx="3.71429" ry="4" fill="#0095FF"/>
<ellipse cx="316.187" cy="41.811" rx="3.71429" ry="4" fill="#0095FF"/>
<ellipse cx="238.122" cy="41.811" rx="3.71429" ry="4" fill="#0095FF"/>
<ellipse cx="174.88" cy="59.0461" rx="3.71429" ry="4" fill="#0095FF"/>
<ellipse cx="123.496" cy="59.0461" rx="3.71429" ry="4" fill="#0095FF"/>
<ellipse cx="72.1115" cy="4.2074" rx="3.71429" ry="4" fill="#0095FF"/>
<ellipse cx="3.92864" cy="27.7097" rx="3.71429" ry="4" fill="#0095FF"/>
<defs>
<linearGradient id="paint0_linear_24_235" x1="3.17896" y1="4.90784" x2="3.17896" y2="93.5496" gradientUnits="userSpaceOnUse">
<stop stop-color="#009DFF" stop-opacity="0.31728"/>
<stop offset="1" stop-color="#0095FF" stop-opacity="0.01"/>
</linearGradient>
</defs>
</svg>
