<svg width="27" height="27" viewBox="0 0 27 27" fill="none" xmlns="http://www.w3.org/2000/svg">
<path d="M4.49982 21.375L3.45357 20.9587C3.37881 21.1468 3.35618 21.3516 3.38808 21.5515C3.41997 21.7514 3.5052 21.939 3.63477 22.0945C3.76435 22.25 3.93348 22.3676 4.12434 22.435C4.31519 22.5024 4.5207 22.5171 4.71919 22.4775L4.49982 21.375ZM9.79407 20.322L10.3273 19.3309L9.97069 19.1396L9.57469 19.2184L9.79407 20.322ZM6.32682 16.7816L7.37307 17.1979L7.55644 16.7321L7.33594 16.2832L6.32682 16.7816ZM21.3748 13.5C21.3748 17.1517 18.1652 20.25 14.0286 20.25V22.5C19.2497 22.5 23.6248 18.5468 23.6248 13.5H21.3748ZM6.68344 13.5C6.68344 9.84825 9.89419 6.75 14.0297 6.75V4.5C8.80857 4.5 4.43232 8.45325 4.43232 13.5H6.68344ZM14.0297 6.75C18.1652 6.75 21.3748 9.84825 21.3748 13.5H23.6248C23.6248 8.45325 19.2508 4.5 14.0297 4.5V6.75ZM14.0286 20.25C12.6729 20.25 11.4107 19.9125 10.3273 19.3309L9.26082 21.312C10.7276 22.0965 12.3651 22.5047 14.0286 22.5V20.25ZM4.71919 22.4775L10.0134 21.4245L9.57469 19.2184L4.28044 20.2714L4.71919 22.4786V22.4775ZM7.33594 16.2832C6.90628 15.4183 6.68369 14.4657 6.68344 13.5H4.43232C4.43232 14.85 4.74957 16.1302 5.31657 17.28L7.33594 16.2832ZM5.28169 16.3654L3.45357 20.9599L5.54382 21.7901L7.37082 17.1968L5.28057 16.3654H5.28169Z" fill="#514EF3"/>
<path d="M10.125 14.625C10.7463 14.625 11.25 14.1213 11.25 13.5C11.25 12.8787 10.7463 12.375 10.125 12.375C9.50368 12.375 9 12.8787 9 13.5C9 14.1213 9.50368 14.625 10.125 14.625Z" fill="#514EF3"/>
<path d="M14.0625 14.625C14.6838 14.625 15.1875 14.1213 15.1875 13.5C15.1875 12.8787 14.6838 12.375 14.0625 12.375C13.4412 12.375 12.9375 12.8787 12.9375 13.5C12.9375 14.1213 13.4412 14.625 14.0625 14.625Z" fill="#514EF3"/>
<path d="M18 14.625C18.6213 14.625 19.125 14.1213 19.125 13.5C19.125 12.8787 18.6213 12.375 18 12.375C17.3787 12.375 16.875 12.8787 16.875 13.5C16.875 14.1213 17.3787 14.625 18 14.625Z" fill="#514EF3"/>
</svg>
