<svg width="16" height="16" viewBox="0 0 16 16" fill="none" xmlns="http://www.w3.org/2000/svg">
<path d="M4.93301 6.66669H5.99301V10C5.99301 10.3667 6.29301 10.6667 6.65967 10.6667H9.32634C9.69301 10.6667 9.99301 10.3667 9.99301 10V6.66669H11.053C11.6463 6.66669 11.9463 5.94669 11.5263 5.52669L8.46634 2.46669C8.40467 2.40489 8.33141 2.35586 8.25076 2.3224C8.17011 2.28895 8.08365 2.27173 7.99634 2.27173C7.90903 2.27173 7.82257 2.28895 7.74193 2.3224C7.66128 2.35586 7.58802 2.40489 7.52634 2.46669L4.46634 5.52669C4.04634 5.94669 4.33967 6.66669 4.93301 6.66669ZM3.33301 12.6667C3.33301 13.0334 3.63301 13.3334 3.99967 13.3334H11.9997C12.3663 13.3334 12.6663 13.0334 12.6663 12.6667C12.6663 12.3 12.3663 12 11.9997 12H3.99967C3.63301 12 3.33301 12.3 3.33301 12.6667Z" fill="#514EF3"/>
</svg>
