<svg width="22" height="22" viewBox="0 0 22 22" fill="none" xmlns="http://www.w3.org/2000/svg">
<path d="M11 2.75H4.58333C4.0971 2.75 3.63079 2.94315 3.28697 3.28697C2.94315 3.63079 2.75 4.0971 2.75 4.58333V17.4167C2.75 17.9029 2.94315 18.3692 3.28697 18.713C3.63079 19.0568 4.0971 19.25 4.58333 19.25H17.4167C17.9029 19.25 18.3692 19.0568 18.713 18.713C19.0568 18.3692 19.25 17.9029 19.25 17.4167V11" stroke="#4ECB71" stroke-width="2.16667" stroke-linecap="round" stroke-linejoin="round"/>
<path d="M16.8439 2.40627C17.2086 2.0416 17.7032 1.83673 18.2189 1.83673C18.7346 1.83673 19.2292 2.0416 19.5939 2.40627C19.9586 2.77095 20.1635 3.26555 20.1635 3.78127C20.1635 4.297 19.9586 4.7916 19.5939 5.15627L11.0002 13.75L7.3335 14.6667L8.25016 11L16.8439 2.40627Z" stroke="#4ECB71" stroke-width="2.16667" stroke-linecap="round" stroke-linejoin="round"/>
</svg>
