<svg width="16" height="16" viewBox="0 0 16 16" fill="none" xmlns="http://www.w3.org/2000/svg">
<g clip-path="url(#clip0_135_1479)">
<path d="M7.532 1.46345C7.79508 1.36502 8.08253 1.35219 8.35333 1.42679L8.468 1.46345L13.1347 3.21345C13.3713 3.30218 13.5778 3.45632 13.7302 3.65792C13.8826 3.85952 13.9745 4.10027 13.9953 4.35212L14 4.46212V8.03745C14 9.11773 13.7083 10.178 13.1557 11.1062C12.6032 12.0345 11.8103 12.7964 10.8607 13.3115L10.6833 13.4041L8.44733 14.5221C8.32422 14.5836 8.18974 14.619 8.05231 14.6261C7.91489 14.6332 7.77747 14.6119 7.64867 14.5635L7.55267 14.5221L5.31667 13.4041C4.35041 12.921 3.53252 12.1859 2.94934 11.2765C2.36616 10.3671 2.03932 9.31717 2.00333 8.23745L2 8.03745V4.46212C2 4.20954 2.07175 3.96215 2.20689 3.74877C2.34203 3.53538 2.535 3.36476 2.76333 3.25679L2.86533 3.21345L7.532 1.46345ZM8 2.71212L3.33333 4.46212V8.03745C3.33335 8.87412 3.5583 9.69541 3.98464 10.4153C4.41097 11.1352 5.02301 11.7273 5.75667 12.1295L5.91333 12.2115L8 13.2548L10.0867 12.2115C10.8352 11.8373 11.4693 11.2687 11.9226 10.5654C12.3759 9.86198 12.6317 9.04966 12.6633 8.21345L12.6667 8.03745V4.46212L8 2.71212ZM10.2887 5.75279C10.4086 5.63322 10.5696 5.5638 10.7389 5.55863C10.9082 5.55346 11.0731 5.61293 11.2002 5.72495C11.3272 5.83697 11.4069 5.99315 11.4229 6.16177C11.439 6.33038 11.3903 6.49879 11.2867 6.63279L11.2313 6.69545L7.742 10.1855C7.6149 10.3125 7.44555 10.3885 7.26611 10.399C7.08668 10.4094 6.90966 10.3536 6.76867 10.2421L6.70467 10.1855L5.102 8.58279C4.98116 8.46309 4.91065 8.30174 4.90488 8.13175C4.89911 7.96177 4.95853 7.79601 5.07098 7.6684C5.18342 7.54079 5.34039 7.46098 5.50975 7.44532C5.67911 7.42965 5.84805 7.4793 5.982 7.58412L6.04467 7.63945L7.22333 8.81812L10.2887 5.75279Z" fill="#514EF3"/>
</g>
<defs>
<clipPath id="clip0_135_1479">
<rect width="16" height="16" fill="white"/>
</clipPath>
</defs>
</svg>
