<svg width="34" height="20" viewBox="0 0 34 20" fill="none" xmlns="http://www.w3.org/2000/svg">
<path d="M16.6752 6.17508L12.6502 2.15008C12.3418 1.84175 11.9168 1.66675 11.4752 1.66675H5.50016C4.5835 1.66675 3.84183 2.41675 3.84183 3.33341L3.8335 16.6667C3.8335 17.5834 4.57516 18.3334 5.49183 18.3334H15.5002C16.4168 18.3334 17.1668 17.5834 17.1668 16.6667V7.35842C17.1668 6.91675 16.9918 6.49175 16.6752 6.17508ZM9.02516 14.4084L7.2585 12.6417C6.9335 12.3167 6.9335 11.7917 7.2585 11.4667C7.5835 11.1417 8.1085 11.1417 8.4335 11.4667L9.6085 12.6417L12.5585 9.69175C12.8835 9.36675 13.4085 9.36675 13.7335 9.69175C14.0585 10.0167 14.0585 10.5417 13.7335 10.8667L10.2002 14.4001C9.8835 14.7334 9.35016 14.7334 9.02516 14.4084ZM12.1668 7.50008C11.7085 7.50008 11.3335 7.12508 11.3335 6.66675V2.91675L15.9168 7.50008H12.1668Z" fill="#33BFFF"/>
<path d="M32.3991 6.72727V14H30.6449V8.3679H30.6023L28.9759 9.36222V7.84233L30.7692 6.72727H32.3991Z" fill="#17A5E6"/>
</svg>
