<svg width="18" height="20" viewBox="0 0 18 20" fill="none" xmlns="http://www.w3.org/2000/svg">
<path fill-rule="evenodd" clip-rule="evenodd" d="M5.89269 3.7902C5.95935 3.32478 6.10158 3.06808 6.30307 2.89536C6.63839 2.60795 7.36285 2.34999 8.9999 2.34999C10.637 2.34999 11.3614 2.60795 11.6967 2.89536C11.8985 3.06835 12.0409 3.32558 12.1074 3.7924C11.2012 3.68944 10.1685 3.64999 8.9999 3.64999C7.8299 3.64999 6.79765 3.68956 5.89269 3.7902ZM4.15879 4.10317C4.20273 3.17764 4.42661 2.26473 5.19673 1.60463C6.02808 0.892038 7.30362 0.649994 8.9999 0.649994C10.6962 0.649994 11.9717 0.892038 12.8031 1.60463C13.5762 2.26729 13.7988 3.18473 13.8415 4.11395C14.7271 4.36092 15.4775 4.73419 16.0803 5.29769C17.2613 6.40157 17.6877 8.05943 17.8091 10.2389C17.8356 10.3212 17.8499 10.4089 17.8499 10.5C17.8499 10.6577 17.8468 10.8169 17.8386 10.9766C17.8465 11.2793 17.8499 11.5911 17.8499 11.9118C17.8499 14.3466 17.532 16.3446 16.0662 17.6541C14.6392 18.929 12.3373 19.35 8.9999 19.35C7.31509 19.35 5.91591 19.268 4.77115 19.0396C3.62212 18.8105 2.67013 18.4227 1.93458 17.7676C0.455156 16.4499 0.149902 14.3222 0.149902 11.5C0.149902 11.2798 0.15176 11.0639 0.155889 10.8522C0.151642 10.7342 0.149902 10.6167 0.149902 10.5C0.149902 10.4331 0.157635 10.368 0.172255 10.3055C0.264444 8.07213 0.67174 6.35715 1.93458 5.23243C2.53519 4.69751 3.28011 4.34081 4.15879 4.10317ZM1.8569 10.841C1.91084 8.41923 2.27958 7.20165 3.06523 6.50193C3.49635 6.11797 4.12768 5.82218 5.10366 5.62752C6.08389 5.43202 7.35139 5.34999 8.9999 5.34999C10.6492 5.34999 11.9141 5.43215 12.8913 5.63297C13.8622 5.8325 14.4891 6.13735 14.9195 6.53961C15.6916 7.26135 16.0645 8.51517 16.1367 10.959C16.1136 11.3253 16.0585 11.6213 15.9612 11.8695C15.8369 12.1867 15.6281 12.4658 15.2261 12.7152C14.3433 13.263 12.5691 13.65 9.00595 13.65C5.44313 13.65 3.66513 13.2631 2.77886 12.7147C2.37493 12.4647 2.16491 12.1851 2.03987 11.8679C1.93186 11.594 1.87542 11.2617 1.8569 10.841ZM15.9825 14.243C15.8013 15.2423 15.4646 15.9119 14.9336 16.3863C14.0273 17.196 12.3292 17.65 8.9999 17.65C7.35139 17.65 6.08389 17.568 5.10366 17.3725C4.12768 17.1778 3.49635 16.882 3.06523 16.4981C2.5476 16.037 2.21095 15.3512 2.02607 14.2444C3.37561 15.0116 5.5683 15.35 9.00595 15.35C12.4446 15.35 14.6356 15.0114 15.9825 14.243ZM6.1499 11.5C6.1499 11.0306 6.53046 10.65 6.9999 10.65H10.9999C11.4693 10.65 11.8499 11.0306 11.8499 11.5C11.8499 11.9694 11.4693 12.35 10.9999 12.35L6.9999 12.35C6.53046 12.35 6.1499 11.9694 6.1499 11.5Z" fill="#347AE2"/>
</svg>
