<svg width="19" height="19" viewBox="0 0 19 19" fill="none" xmlns="http://www.w3.org/2000/svg">
<path fill-rule="evenodd" clip-rule="evenodd" d="M3.85002 5.49999C3.85002 3.7603 5.26033 2.34999 7.00002 2.34999C8.73972 2.34999 10.15 3.7603 10.15 5.49999C10.15 7.23969 8.73972 8.64999 7.00002 8.64999C5.26033 8.64999 3.85002 7.23969 3.85002 5.49999ZM7.00002 0.649994C4.32144 0.649994 2.15002 2.82141 2.15002 5.49999C2.15002 8.17858 4.32144 10.35 7.00002 10.35C9.67861 10.35 11.85 8.17858 11.85 5.49999C11.85 2.82141 9.67861 0.649994 7.00002 0.649994ZM1.85002 15.4167C1.85002 15.0136 2.17867 14.4979 3.21839 14.0388C4.20792 13.6018 5.58426 13.35 7.00002 13.35C8.39573 13.35 9.77092 13.6431 10.7679 14.1047C11.2669 14.3357 11.6328 14.5912 11.863 14.8378C12.0846 15.0752 12.1477 15.2656 12.15 15.4085C12.1419 15.43 12.1051 15.4981 11.9627 15.6088C11.7443 15.7786 11.3797 15.9616 10.865 16.127C9.84459 16.4549 8.43632 16.65 7.00002 16.65C5.30152 16.65 3.90338 16.4521 2.96133 16.1316C2.48766 15.9704 2.18108 15.7955 2.00771 15.6425C1.84896 15.5024 1.84988 15.4286 1.85002 15.4174L1.85002 15.4167ZM12.1519 15.401C12.1521 15.401 12.1519 15.403 12.1506 15.4068C12.1511 15.4029 12.1517 15.401 12.1519 15.401ZM7.00002 11.65C5.41579 11.65 3.79212 11.927 2.53166 12.4837C1.32137 13.0181 0.150024 13.9607 0.150024 15.4167C0.150024 16.0456 0.467576 16.5507 0.882959 16.9172C1.28772 17.2744 1.82489 17.5406 2.41372 17.741C3.59666 18.1435 5.19852 18.35 7.00002 18.35C8.56372 18.35 10.1555 18.1406 11.3851 17.7455C11.9953 17.5494 12.5683 17.2913 13.0061 16.951C13.4404 16.6133 13.85 16.1034 13.85 15.4167C13.85 14.7271 13.5361 14.1389 13.1058 13.6778C12.6797 13.2213 12.1082 12.8518 11.4821 12.562C10.2291 11.9819 8.60432 11.65 7.00002 11.65ZM13.1539 9.41846C13.199 8.95119 13.6143 8.60888 14.0816 8.65391C15.2957 8.77092 16.4222 9.08653 17.2734 9.57878C18.0978 10.0555 18.85 10.82 18.85 11.8733C18.85 12.4192 18.6411 12.917 18.2349 13.3126C17.852 13.6855 17.3292 13.9349 16.7319 14.1043C16.2802 14.2323 15.8103 13.97 15.6823 13.5183C15.5542 13.0667 15.8165 12.5968 16.2682 12.4687C16.7158 12.3418 16.943 12.1978 17.0488 12.0947C17.1314 12.0143 17.15 11.9536 17.15 11.8733C17.15 11.7166 17.0328 11.4034 16.4224 11.0504C15.8389 10.713 14.9654 10.447 13.9185 10.3461C13.4512 10.301 13.1089 9.88574 13.1539 9.41846ZM15 0.649994C14.5306 0.649994 14.15 1.03055 14.15 1.49999C14.15 1.96944 14.5306 2.34999 15 2.34999C15.9113 2.34999 16.65 3.08872 16.65 3.99999C16.65 4.91126 15.9113 5.64999 15 5.64999C14.5306 5.64999 14.15 6.03055 14.15 6.49999C14.15 6.96944 14.5306 7.34999 15 7.34999C16.8502 7.34999 18.35 5.85015 18.35 3.99999C18.35 2.14984 16.8502 0.649994 15 0.649994Z" fill="#347AE2"/>
</svg>
