<svg width="20" height="21" viewBox="0 0 20 21" fill="none" xmlns="http://www.w3.org/2000/svg">
<path fill-rule="evenodd" clip-rule="evenodd" d="M1.8499 10.5C1.8499 5.99887 5.49878 2.34999 9.9999 2.34999C10.8908 2.34999 11.7467 2.49263 12.547 2.75567C12.993 2.90225 13.4733 2.65955 13.6199 2.21358C13.7665 1.76761 13.5238 1.28725 13.0778 1.14067C12.1084 0.822025 11.0734 0.649994 9.9999 0.649994C4.5599 0.649994 0.149902 5.05999 0.149902 10.5C0.149902 15.94 4.5599 20.35 9.9999 20.35C15.4399 20.35 19.8499 15.94 19.8499 10.5C19.8499 10.0306 19.4693 9.64999 18.9999 9.64999C18.5305 9.64999 18.1499 10.0306 18.1499 10.5C18.1499 15.0011 14.501 18.65 9.9999 18.65C5.49878 18.65 1.8499 15.0011 1.8499 10.5ZM17.6022 6.09973C17.9335 5.76706 17.9323 5.22888 17.5996 4.89765C17.267 4.56643 16.7288 4.56759 16.3976 4.90026L10.0495 11.2759L7.62083 8.67804C7.30024 8.33511 6.76236 8.317 6.41943 8.63759C6.0765 8.95818 6.05839 9.49606 6.37898 9.83899L9.40928 13.0805C9.56684 13.249 9.78614 13.3463 10.0168 13.3499C10.2475 13.3535 10.4698 13.2632 10.6325 13.0997L17.6022 6.09973Z" fill="#347AE2"/>
</svg>
