<svg width="16" height="16" viewBox="0 0 16 16" fill="none" xmlns="http://www.w3.org/2000/svg">
<path fill-rule="evenodd" clip-rule="evenodd" d="M1.33301 3.83325C1.33301 3.70064 1.38569 3.57347 1.47945 3.4797C1.57322 3.38593 1.7004 3.33325 1.83301 3.33325H13.833C13.9656 3.33325 14.0928 3.38593 14.1866 3.4797C14.2803 3.57347 14.333 3.70064 14.333 3.83325C14.333 3.96586 14.2803 4.09304 14.1866 4.18681C14.0928 4.28057 13.9656 4.33325 13.833 4.33325H1.83301C1.7004 4.33325 1.57322 4.28057 1.47945 4.18681C1.38569 4.09304 1.33301 3.96586 1.33301 3.83325ZM1.33301 6.49992C1.33301 6.36731 1.38569 6.24013 1.47945 6.14637C1.57322 6.0526 1.7004 5.99992 1.83301 5.99992H13.833C13.9656 5.99992 14.0928 6.0526 14.1866 6.14637C14.2803 6.24013 14.333 6.36731 14.333 6.49992C14.333 6.63253 14.2803 6.7597 14.1866 6.85347C14.0928 6.94724 13.9656 6.99992 13.833 6.99992H1.83301C1.7004 6.99992 1.57322 6.94724 1.47945 6.85347C1.38569 6.7597 1.33301 6.63253 1.33301 6.49992ZM13.4737 8.43925C13.5781 8.52081 13.6459 8.64048 13.6621 8.77199C13.6784 8.90349 13.6418 9.03606 13.5603 9.14059L10.9603 12.4739C10.9145 12.5326 10.8562 12.5803 10.7896 12.6135C10.723 12.6467 10.6498 12.6647 10.5753 12.666C10.5009 12.6674 10.4271 12.6521 10.3594 12.6212C10.2916 12.5904 10.2316 12.5449 10.1837 12.4879L8.78367 10.8213C8.73871 10.7714 8.70425 10.713 8.68235 10.6495C8.66044 10.586 8.65155 10.5188 8.6562 10.4518C8.66084 10.3848 8.67894 10.3195 8.70939 10.2596C8.73985 10.1998 8.78204 10.1467 8.83347 10.1035C8.88489 10.0603 8.94448 10.0279 9.00868 10.0083C9.07289 9.98865 9.1404 9.98213 9.20718 9.98914C9.27395 9.99615 9.33864 10.0165 9.39737 10.0491C9.4561 10.0816 9.50767 10.1257 9.54901 10.1786L10.5517 11.3719L12.7717 8.52525C12.8121 8.47345 12.8623 8.43011 12.9194 8.39772C12.9766 8.36533 13.0395 8.34451 13.1047 8.33646C13.1699 8.32842 13.2361 8.33329 13.2994 8.35081C13.3627 8.36834 13.4219 8.39816 13.4737 8.43859M1.33301 9.16659C1.33301 9.03398 1.38569 8.9068 1.47945 8.81303C1.57322 8.71926 1.7004 8.66659 1.83301 8.66659H6.49967C6.63228 8.66659 6.75946 8.71926 6.85323 8.81303C6.947 8.9068 6.99967 9.03398 6.99967 9.16659C6.99967 9.29919 6.947 9.42637 6.85323 9.52014C6.75946 9.61391 6.63228 9.66659 6.49967 9.66659H1.83301C1.7004 9.66659 1.57322 9.61391 1.47945 9.52014C1.38569 9.42637 1.33301 9.29919 1.33301 9.16659ZM1.33301 11.8333C1.33301 11.7006 1.38569 11.5735 1.47945 11.4797C1.57322 11.3859 1.7004 11.3333 1.83301 11.3333H6.49967C6.63228 11.3333 6.75946 11.3859 6.85323 11.4797C6.947 11.5735 6.99967 11.7006 6.99967 11.8333C6.99967 11.9659 6.947 12.093 6.85323 12.1868C6.75946 12.2806 6.63228 12.3333 6.49967 12.3333H1.83301C1.7004 12.3333 1.57322 12.2806 1.47945 12.1868C1.38569 12.093 1.33301 11.9659 1.33301 11.8333Z" fill="#514EF3"/>
</svg>
