<svg width="16" height="16" viewBox="0 0 16 16" fill="none" xmlns="http://www.w3.org/2000/svg">
<path d="M8.00065 6.66659C9.47341 6.66659 10.6673 5.47268 10.6673 3.99992C10.6673 2.52716 9.47341 1.33325 8.00065 1.33325C6.52789 1.33325 5.33398 2.52716 5.33398 3.99992C5.33398 5.47268 6.52789 6.66659 8.00065 6.66659Z" stroke="#514EF3"/>
<path d="M13.3323 11.9998C13.3337 11.8905 13.3337 11.7792 13.3337 11.6665C13.3337 10.0098 10.9457 8.6665 8.00033 8.6665C5.05499 8.6665 2.66699 10.0098 2.66699 11.6665C2.66699 13.3232 2.66699 14.6665 8.00033 14.6665C9.48766 14.6665 10.5603 14.5618 11.3337 14.3752" stroke="#514EF3" stroke-linecap="round"/>
</svg>
